<mxfile host="app.diagrams.net" modified="2024-02-01T18:07:33.029Z" agent="Mozilla/5.0 (Macintosh; Intel Mac OS X 10_15_7) AppleWebKit/605.1.15 (KHTML, like Gecko) Version/17.2.1 Safari/605.1.15" etag="N0zwBWZpAaUCJcq1w3nM" version="23.0.2" type="github">
  <diagram name="Page-1" id="0v1_y2V5no5WbBdqq2O9">
    <mxGraphModel dx="2061" dy="765" grid="1" gridSize="10" guides="1" tooltips="1" connect="1" arrows="1" fold="1" page="1" pageScale="1" pageWidth="850" pageHeight="1100" math="0" shadow="0">
      <root>
        <mxCell id="0" />
        <mxCell id="1" parent="0" />
        <mxCell id="mi9FCdat_Hb8DPSaNjZs-38" style="edgeStyle=orthogonalEdgeStyle;rounded=0;orthogonalLoop=1;jettySize=auto;html=1;" edge="1" parent="1" source="mi9FCdat_Hb8DPSaNjZs-6" target="mi9FCdat_Hb8DPSaNjZs-26">
          <mxGeometry relative="1" as="geometry" />
        </mxCell>
        <mxCell id="mi9FCdat_Hb8DPSaNjZs-64" style="edgeStyle=orthogonalEdgeStyle;rounded=0;orthogonalLoop=1;jettySize=auto;html=1;entryX=0.5;entryY=0;entryDx=0;entryDy=0;" edge="1" parent="1" source="mi9FCdat_Hb8DPSaNjZs-6" target="mi9FCdat_Hb8DPSaNjZs-9">
          <mxGeometry relative="1" as="geometry" />
        </mxCell>
        <mxCell id="mi9FCdat_Hb8DPSaNjZs-65" style="edgeStyle=orthogonalEdgeStyle;rounded=0;orthogonalLoop=1;jettySize=auto;html=1;" edge="1" parent="1" source="mi9FCdat_Hb8DPSaNjZs-6" target="mi9FCdat_Hb8DPSaNjZs-10">
          <mxGeometry relative="1" as="geometry" />
        </mxCell>
        <mxCell id="mi9FCdat_Hb8DPSaNjZs-66" style="edgeStyle=orthogonalEdgeStyle;rounded=0;orthogonalLoop=1;jettySize=auto;html=1;" edge="1" parent="1" source="mi9FCdat_Hb8DPSaNjZs-6" target="mi9FCdat_Hb8DPSaNjZs-11">
          <mxGeometry relative="1" as="geometry" />
        </mxCell>
        <mxCell id="mi9FCdat_Hb8DPSaNjZs-6" value="Raptor" style="shape=process;whiteSpace=wrap;html=1;backgroundOutline=1;" vertex="1" parent="1">
          <mxGeometry x="275" y="430" width="220" height="100" as="geometry" />
        </mxCell>
        <mxCell id="mi9FCdat_Hb8DPSaNjZs-12" value="PWM" style="rounded=0;whiteSpace=wrap;html=1;" vertex="1" parent="1">
          <mxGeometry x="300" y="715" width="50" height="40" as="geometry" />
        </mxCell>
        <mxCell id="mi9FCdat_Hb8DPSaNjZs-16" value="ADC" style="rounded=0;whiteSpace=wrap;html=1;" vertex="1" parent="1">
          <mxGeometry x="360" y="715" width="110" height="40" as="geometry" />
        </mxCell>
        <mxCell id="mi9FCdat_Hb8DPSaNjZs-19" value="Firmware Plugins" style="swimlane;horizontal=0;whiteSpace=wrap;html=1;" vertex="1" parent="1">
          <mxGeometry x="250" y="580" width="270" height="120" as="geometry" />
        </mxCell>
        <mxCell id="mi9FCdat_Hb8DPSaNjZs-11" value="Current&lt;br&gt;Sense" style="rounded=0;whiteSpace=wrap;html=1;" vertex="1" parent="mi9FCdat_Hb8DPSaNjZs-19">
          <mxGeometry x="170" y="15" width="50" height="90" as="geometry" />
        </mxCell>
        <mxCell id="mi9FCdat_Hb8DPSaNjZs-10" value="Temp&lt;br&gt;Probe" style="rounded=0;whiteSpace=wrap;html=1;" vertex="1" parent="mi9FCdat_Hb8DPSaNjZs-19">
          <mxGeometry x="110" y="15" width="50" height="90" as="geometry" />
        </mxCell>
        <mxCell id="mi9FCdat_Hb8DPSaNjZs-9" value="ESC&lt;br&gt;Driver" style="rounded=0;whiteSpace=wrap;html=1;" vertex="1" parent="mi9FCdat_Hb8DPSaNjZs-19">
          <mxGeometry x="50" y="15" width="50" height="90" as="geometry" />
        </mxCell>
        <mxCell id="mi9FCdat_Hb8DPSaNjZs-22" value="Limit" style="swimlane;fontStyle=0;childLayout=stackLayout;horizontal=1;startSize=30;horizontalStack=0;resizeParent=1;resizeParentMax=0;resizeLast=0;collapsible=1;marginBottom=0;whiteSpace=wrap;html=1;" vertex="1" parent="1">
          <mxGeometry x="-180" y="80" width="170" height="120" as="geometry" />
        </mxCell>
        <mxCell id="mi9FCdat_Hb8DPSaNjZs-28" value="id: str" style="text;strokeColor=none;fillColor=none;align=left;verticalAlign=middle;spacingLeft=4;spacingRight=4;overflow=hidden;points=[[0,0.5],[1,0.5]];portConstraint=eastwest;rotatable=0;whiteSpace=wrap;html=1;" vertex="1" parent="mi9FCdat_Hb8DPSaNjZs-22">
          <mxGeometry y="30" width="170" height="30" as="geometry" />
        </mxCell>
        <mxCell id="mi9FCdat_Hb8DPSaNjZs-23" value="upper: float" style="text;strokeColor=none;fillColor=none;align=left;verticalAlign=middle;spacingLeft=4;spacingRight=4;overflow=hidden;points=[[0,0.5],[1,0.5]];portConstraint=eastwest;rotatable=0;whiteSpace=wrap;html=1;" vertex="1" parent="mi9FCdat_Hb8DPSaNjZs-22">
          <mxGeometry y="60" width="170" height="30" as="geometry" />
        </mxCell>
        <mxCell id="mi9FCdat_Hb8DPSaNjZs-24" value="lower: float" style="text;strokeColor=none;fillColor=none;align=left;verticalAlign=middle;spacingLeft=4;spacingRight=4;overflow=hidden;points=[[0,0.5],[1,0.5]];portConstraint=eastwest;rotatable=0;whiteSpace=wrap;html=1;" vertex="1" parent="mi9FCdat_Hb8DPSaNjZs-22">
          <mxGeometry y="90" width="170" height="30" as="geometry" />
        </mxCell>
        <mxCell id="mi9FCdat_Hb8DPSaNjZs-36" style="edgeStyle=orthogonalEdgeStyle;rounded=0;orthogonalLoop=1;jettySize=auto;html=1;" edge="1" parent="1" source="mi9FCdat_Hb8DPSaNjZs-26" target="mi9FCdat_Hb8DPSaNjZs-6">
          <mxGeometry relative="1" as="geometry" />
        </mxCell>
        <mxCell id="mi9FCdat_Hb8DPSaNjZs-29" value="Sequence" style="swimlane;fontStyle=0;childLayout=stackLayout;horizontal=1;startSize=30;horizontalStack=0;resizeParent=1;resizeParentMax=0;resizeLast=0;collapsible=1;marginBottom=0;whiteSpace=wrap;html=1;" vertex="1" parent="1">
          <mxGeometry x="20" y="80" width="170" height="150" as="geometry" />
        </mxCell>
        <mxCell id="mi9FCdat_Hb8DPSaNjZs-30" value="index:int" style="text;strokeColor=none;fillColor=none;align=left;verticalAlign=middle;spacingLeft=4;spacingRight=4;overflow=hidden;points=[[0,0.5],[1,0.5]];portConstraint=eastwest;rotatable=0;whiteSpace=wrap;html=1;" vertex="1" parent="mi9FCdat_Hb8DPSaNjZs-29">
          <mxGeometry y="30" width="170" height="30" as="geometry" />
        </mxCell>
        <mxCell id="mi9FCdat_Hb8DPSaNjZs-31" value="setpoints: list[float]" style="text;strokeColor=none;fillColor=none;align=left;verticalAlign=middle;spacingLeft=4;spacingRight=4;overflow=hidden;points=[[0,0.5],[1,0.5]];portConstraint=eastwest;rotatable=0;whiteSpace=wrap;html=1;" vertex="1" parent="mi9FCdat_Hb8DPSaNjZs-29">
          <mxGeometry y="60" width="170" height="30" as="geometry" />
        </mxCell>
        <mxCell id="mi9FCdat_Hb8DPSaNjZs-32" value="dwells: list[float]" style="text;strokeColor=none;fillColor=none;align=left;verticalAlign=middle;spacingLeft=4;spacingRight=4;overflow=hidden;points=[[0,0.5],[1,0.5]];portConstraint=eastwest;rotatable=0;whiteSpace=wrap;html=1;" vertex="1" parent="mi9FCdat_Hb8DPSaNjZs-29">
          <mxGeometry y="90" width="170" height="30" as="geometry" />
        </mxCell>
        <mxCell id="mi9FCdat_Hb8DPSaNjZs-33" value="limits: list[Limit]" style="text;strokeColor=none;fillColor=none;align=left;verticalAlign=middle;spacingLeft=4;spacingRight=4;overflow=hidden;points=[[0,0.5],[1,0.5]];portConstraint=eastwest;rotatable=0;whiteSpace=wrap;html=1;" vertex="1" parent="mi9FCdat_Hb8DPSaNjZs-29">
          <mxGeometry y="120" width="170" height="30" as="geometry" />
        </mxCell>
        <mxCell id="mi9FCdat_Hb8DPSaNjZs-34" value="ID must relate the limit to the measurement input which is being assigned a limit" style="text;html=1;strokeColor=#6c8ebf;fillColor=#dae8fc;align=center;verticalAlign=middle;whiteSpace=wrap;rounded=0;" vertex="1" parent="1">
          <mxGeometry x="-350" y="150" width="130" height="80" as="geometry" />
        </mxCell>
        <mxCell id="mi9FCdat_Hb8DPSaNjZs-35" value="" style="endArrow=none;html=1;rounded=0;" edge="1" parent="1" source="mi9FCdat_Hb8DPSaNjZs-34" target="mi9FCdat_Hb8DPSaNjZs-28">
          <mxGeometry width="50" height="50" relative="1" as="geometry">
            <mxPoint x="-190" y="330" as="sourcePoint" />
            <mxPoint x="-140" y="280" as="targetPoint" />
          </mxGeometry>
        </mxCell>
        <mxCell id="mi9FCdat_Hb8DPSaNjZs-39" value="Binary Payload (~1KHz)" style="swimlane;fontStyle=0;childLayout=stackLayout;horizontal=1;startSize=30;horizontalStack=0;resizeParent=1;resizeParentMax=0;resizeLast=0;collapsible=1;marginBottom=0;whiteSpace=wrap;html=1;" vertex="1" parent="1">
          <mxGeometry x="570" y="40" width="170" height="240" as="geometry" />
        </mxCell>
        <mxCell id="mi9FCdat_Hb8DPSaNjZs-40" value="index:int" style="text;strokeColor=none;fillColor=none;align=left;verticalAlign=middle;spacingLeft=4;spacingRight=4;overflow=hidden;points=[[0,0.5],[1,0.5]];portConstraint=eastwest;rotatable=0;whiteSpace=wrap;html=1;" vertex="1" parent="mi9FCdat_Hb8DPSaNjZs-39">
          <mxGeometry y="30" width="170" height="30" as="geometry" />
        </mxCell>
        <mxCell id="mi9FCdat_Hb8DPSaNjZs-45" value="key:str" style="text;strokeColor=none;fillColor=none;align=left;verticalAlign=middle;spacingLeft=4;spacingRight=4;overflow=hidden;points=[[0,0.5],[1,0.5]];portConstraint=eastwest;rotatable=0;whiteSpace=wrap;html=1;" vertex="1" parent="mi9FCdat_Hb8DPSaNjZs-39">
          <mxGeometry y="60" width="170" height="30" as="geometry" />
        </mxCell>
        <mxCell id="mi9FCdat_Hb8DPSaNjZs-46" value="timestamp:float" style="text;strokeColor=none;fillColor=none;align=left;verticalAlign=middle;spacingLeft=4;spacingRight=4;overflow=hidden;points=[[0,0.5],[1,0.5]];portConstraint=eastwest;rotatable=0;whiteSpace=wrap;html=1;" vertex="1" parent="mi9FCdat_Hb8DPSaNjZs-39">
          <mxGeometry y="90" width="170" height="30" as="geometry" />
        </mxCell>
        <mxCell id="mi9FCdat_Hb8DPSaNjZs-47" value="frequency:int" style="text;strokeColor=none;fillColor=none;align=left;verticalAlign=middle;spacingLeft=4;spacingRight=4;overflow=hidden;points=[[0,0.5],[1,0.5]];portConstraint=eastwest;rotatable=0;whiteSpace=wrap;html=1;" vertex="1" parent="mi9FCdat_Hb8DPSaNjZs-39">
          <mxGeometry y="120" width="170" height="30" as="geometry" />
        </mxCell>
        <mxCell id="mi9FCdat_Hb8DPSaNjZs-41" value="voltage: list[float]" style="text;strokeColor=none;fillColor=none;align=left;verticalAlign=middle;spacingLeft=4;spacingRight=4;overflow=hidden;points=[[0,0.5],[1,0.5]];portConstraint=eastwest;rotatable=0;whiteSpace=wrap;html=1;" vertex="1" parent="mi9FCdat_Hb8DPSaNjZs-39">
          <mxGeometry y="150" width="170" height="30" as="geometry" />
        </mxCell>
        <mxCell id="mi9FCdat_Hb8DPSaNjZs-42" value="current: list[float]" style="text;strokeColor=none;fillColor=none;align=left;verticalAlign=middle;spacingLeft=4;spacingRight=4;overflow=hidden;points=[[0,0.5],[1,0.5]];portConstraint=eastwest;rotatable=0;whiteSpace=wrap;html=1;" vertex="1" parent="mi9FCdat_Hb8DPSaNjZs-39">
          <mxGeometry y="180" width="170" height="30" as="geometry" />
        </mxCell>
        <mxCell id="mi9FCdat_Hb8DPSaNjZs-43" value="thrust: list[float]" style="text;strokeColor=none;fillColor=none;align=left;verticalAlign=middle;spacingLeft=4;spacingRight=4;overflow=hidden;points=[[0,0.5],[1,0.5]];portConstraint=eastwest;rotatable=0;whiteSpace=wrap;html=1;" vertex="1" parent="mi9FCdat_Hb8DPSaNjZs-39">
          <mxGeometry y="210" width="170" height="30" as="geometry" />
        </mxCell>
        <mxCell id="mi9FCdat_Hb8DPSaNjZs-48" value="Health Payload (~1Hz)" style="swimlane;fontStyle=0;childLayout=stackLayout;horizontal=1;startSize=30;horizontalStack=0;resizeParent=1;resizeParentMax=0;resizeLast=0;collapsible=1;marginBottom=0;whiteSpace=wrap;html=1;" vertex="1" parent="1">
          <mxGeometry x="780" y="40" width="170" height="300" as="geometry" />
        </mxCell>
        <mxCell id="mi9FCdat_Hb8DPSaNjZs-51" value="timestamp:float" style="text;strokeColor=none;fillColor=none;align=left;verticalAlign=middle;spacingLeft=4;spacingRight=4;overflow=hidden;points=[[0,0.5],[1,0.5]];portConstraint=eastwest;rotatable=0;whiteSpace=wrap;html=1;" vertex="1" parent="mi9FCdat_Hb8DPSaNjZs-48">
          <mxGeometry y="30" width="170" height="30" as="geometry" />
        </mxCell>
        <mxCell id="mi9FCdat_Hb8DPSaNjZs-56" value="status: int" style="text;strokeColor=none;fillColor=none;align=left;verticalAlign=middle;spacingLeft=4;spacingRight=4;overflow=hidden;points=[[0,0.5],[1,0.5]];portConstraint=eastwest;rotatable=0;whiteSpace=wrap;html=1;" vertex="1" parent="mi9FCdat_Hb8DPSaNjZs-48">
          <mxGeometry y="60" width="170" height="30" as="geometry" />
        </mxCell>
        <mxCell id="mi9FCdat_Hb8DPSaNjZs-52" value="ambient_temperature:float" style="text;strokeColor=none;fillColor=none;align=left;verticalAlign=middle;spacingLeft=4;spacingRight=4;overflow=hidden;points=[[0,0.5],[1,0.5]];portConstraint=eastwest;rotatable=0;whiteSpace=wrap;html=1;" vertex="1" parent="mi9FCdat_Hb8DPSaNjZs-48">
          <mxGeometry y="90" width="170" height="30" as="geometry" />
        </mxCell>
        <mxCell id="mi9FCdat_Hb8DPSaNjZs-53" value="ambient_humidity: float" style="text;strokeColor=none;fillColor=none;align=left;verticalAlign=middle;spacingLeft=4;spacingRight=4;overflow=hidden;points=[[0,0.5],[1,0.5]];portConstraint=eastwest;rotatable=0;whiteSpace=wrap;html=1;" vertex="1" parent="mi9FCdat_Hb8DPSaNjZs-48">
          <mxGeometry y="120" width="170" height="30" as="geometry" />
        </mxCell>
        <mxCell id="mi9FCdat_Hb8DPSaNjZs-54" value="ambient_pressure: float" style="text;strokeColor=none;fillColor=none;align=left;verticalAlign=middle;spacingLeft=4;spacingRight=4;overflow=hidden;points=[[0,0.5],[1,0.5]];portConstraint=eastwest;rotatable=0;whiteSpace=wrap;html=1;" vertex="1" parent="mi9FCdat_Hb8DPSaNjZs-48">
          <mxGeometry y="150" width="170" height="30" as="geometry" />
        </mxCell>
        <mxCell id="mi9FCdat_Hb8DPSaNjZs-58" value="temperature_probe1: float" style="text;strokeColor=none;fillColor=none;align=left;verticalAlign=middle;spacingLeft=4;spacingRight=4;overflow=hidden;points=[[0,0.5],[1,0.5]];portConstraint=eastwest;rotatable=0;whiteSpace=wrap;html=1;" vertex="1" parent="mi9FCdat_Hb8DPSaNjZs-48">
          <mxGeometry y="180" width="170" height="30" as="geometry" />
        </mxCell>
        <mxCell id="mi9FCdat_Hb8DPSaNjZs-59" value="temperature_probe2: float" style="text;strokeColor=none;fillColor=none;align=left;verticalAlign=middle;spacingLeft=4;spacingRight=4;overflow=hidden;points=[[0,0.5],[1,0.5]];portConstraint=eastwest;rotatable=0;whiteSpace=wrap;html=1;" vertex="1" parent="mi9FCdat_Hb8DPSaNjZs-48">
          <mxGeometry y="210" width="170" height="30" as="geometry" />
        </mxCell>
        <mxCell id="mi9FCdat_Hb8DPSaNjZs-60" value="temperature_probe3: float" style="text;strokeColor=none;fillColor=none;align=left;verticalAlign=middle;spacingLeft=4;spacingRight=4;overflow=hidden;points=[[0,0.5],[1,0.5]];portConstraint=eastwest;rotatable=0;whiteSpace=wrap;html=1;" vertex="1" parent="mi9FCdat_Hb8DPSaNjZs-48">
          <mxGeometry y="240" width="170" height="30" as="geometry" />
        </mxCell>
        <mxCell id="mi9FCdat_Hb8DPSaNjZs-57" value="battery SoC: float" style="text;strokeColor=none;fillColor=none;align=left;verticalAlign=middle;spacingLeft=4;spacingRight=4;overflow=hidden;points=[[0,0.5],[1,0.5]];portConstraint=eastwest;rotatable=0;whiteSpace=wrap;html=1;" vertex="1" parent="mi9FCdat_Hb8DPSaNjZs-48">
          <mxGeometry y="270" width="170" height="30" as="geometry" />
        </mxCell>
        <mxCell id="mi9FCdat_Hb8DPSaNjZs-62" value="Sensors not connected will yield NaN constant -99.9" style="text;html=1;strokeColor=#6c8ebf;fillColor=#dae8fc;align=center;verticalAlign=middle;whiteSpace=wrap;rounded=0;" vertex="1" parent="1">
          <mxGeometry x="1000" y="220" width="100" height="70" as="geometry" />
        </mxCell>
        <mxCell id="mi9FCdat_Hb8DPSaNjZs-67" value="Software Stack" style="swimlane;horizontal=0;whiteSpace=wrap;html=1;" vertex="1" parent="1">
          <mxGeometry x="240" y="50" width="270" height="230" as="geometry" />
        </mxCell>
        <mxCell id="mi9FCdat_Hb8DPSaNjZs-26" value="Protocol" style="shape=document;whiteSpace=wrap;html=1;boundedLbl=1;" vertex="1" parent="mi9FCdat_Hb8DPSaNjZs-67">
          <mxGeometry x="85" y="120" width="120" height="80" as="geometry" />
        </mxCell>
        <mxCell id="mi9FCdat_Hb8DPSaNjZs-1" value="Fusion" style="shape=process;whiteSpace=wrap;html=1;backgroundOutline=1;" vertex="1" parent="mi9FCdat_Hb8DPSaNjZs-67">
          <mxGeometry x="90" y="20" width="110" height="60" as="geometry" />
        </mxCell>
        <mxCell id="mi9FCdat_Hb8DPSaNjZs-27" style="edgeStyle=orthogonalEdgeStyle;rounded=0;orthogonalLoop=1;jettySize=auto;html=1;entryX=0.5;entryY=0;entryDx=0;entryDy=0;" edge="1" parent="mi9FCdat_Hb8DPSaNjZs-67" source="mi9FCdat_Hb8DPSaNjZs-1" target="mi9FCdat_Hb8DPSaNjZs-26">
          <mxGeometry relative="1" as="geometry" />
        </mxCell>
      </root>
    </mxGraphModel>
  </diagram>
</mxfile>
